<svg width="532" height="336" viewBox="0 0 532 336" fill="none" xmlns="http://www.w3.org/2000/svg">
<path d="M-26.24 312.9C-16.0213 336.58 10.8089 351.52 36.2667 345.333C48.6515 342.311 59.5984 335.073 67.2284 324.86C74.711 314.561 77.9215 301.768 76.1884 289.156C74.5884 277.003 68.7573 265.241 59.3067 257.298C50.6098 249.98 38.2435 246.233 27.0222 248.764C15.3884 251.417 7.85777 261.358 7.33155 273.106C6.75555 285.991 13.1627 298.485 22.0444 307.431C31.4098 316.811 44.352 322.777 57.728 320.324C71.104 317.87 79.8293 307.424 81.8275 294.247C84.1884 278.702 78.0587 263.918 75.2711 248.885C72.8569 235.71 74.0536 222.126 78.7342 209.575C87.6587 185.305 108.444 164.932 133.86 158.823C147.769 155.481 163.996 156.192 175.879 164.917C186.695 172.86 191.268 187.14 188.636 200.103C185.977 213.195 175.943 222.823 162.937 225.547C150.044 228.242 136.05 223.925 128.199 213.067C120.668 202.663 119.324 188.448 123.449 176.444C128 163.289 139.378 153.66 152.249 149.067C181.404 138.748 211.314 154.45 229.959 176.743C249.486 200.089 258.908 229.707 276.181 254.503C291.079 275.9 315.292 296.651 343.026 294.923C370.489 293.237 389.689 269.572 398.144 245.259C408.917 214.29 407.189 180.548 416.476 149.195C424.811 121.049 443.634 92.9031 474.076 86.24C487.915 83.0775 502.442 86.3336 513.607 95.1004C523.961 103.236 531.285 115.957 529.899 129.426C528.476 143.364 518.158 155.268 505.621 160.85C490.688 167.492 472.811 165.316 458.539 158.005C435.563 146.222 420.978 120.622 420.978 94.9725C421.035 64.6934 442.738 40.3307 466.731 24.5369C480.05 15.776 494.464 8.89246 508.85 2.07291C509.781 1.63202 508.971 0.252441 508.039 0.650665C479.936 14.0267 450.318 28.384 432.363 55.0009C424.811 66.1796 419.911 79.1076 419.42 92.6898C419.081 105.104 421.884 117.403 427.57 128.444C439.701 152.302 465.472 169.433 492.871 165.941C506.012 164.27 518.158 157.216 525.468 146.03C532.369 135.654 533.459 122.462 528.356 111.093C523.214 99.6445 512.932 90.7342 501.276 86.3396C488.903 81.6676 475.193 82.976 463.154 88.0605C435.42 99.7796 420.203 127.406 413.134 155.339C409.138 171.104 407.346 187.268 405.248 203.367C403.044 220.327 400.348 237.657 393.216 253.358C387.406 266.158 378.475 277.998 366.5 285.572C354.22 293.337 339.189 295.431 325.255 291.317C295.737 282.784 277.248 255.833 263.609 230.162C249.65 203.893 236.985 175.292 211.698 157.785C200.014 149.692 186.098 144.274 171.748 144.188C158.748 144.103 145.572 148.341 135.481 156.64C125.76 164.555 119.938 176.289 119.516 188.818C119.132 200.409 123.378 212.455 132.43 220.014C141.483 227.573 154.311 229.614 165.525 226.578C177.038 223.456 186.148 214.93 189.476 203.417C192.704 192.26 190.649 179.46 183.538 170.194C175.211 159.335 161.038 155.182 147.826 155.424C122.325 155.9 99.136 171.374 85.5609 192.402C78.7126 202.905 74.3675 214.841 72.8604 227.289C72.1416 233.591 72.2564 239.961 73.2018 246.233C74.5031 254.873 77.1555 263.228 78.9689 271.762C82.048 286.276 82.2898 304.942 68.5227 314.3C55.2249 323.346 37.9449 319.129 26.4249 309.323C15.7582 300.206 7.65866 286.034 9.03821 271.598C9.69243 264.786 12.928 258.308 18.56 254.268C23.7867 250.521 30.3573 249.291 36.6933 249.724C65.8844 251.858 81.3227 285.863 72.4978 311.548C67.8329 325.088 56.6755 335.911 43.52 341.33C30.3088 346.759 15.4199 346.361 2.51732 340.235C-9.7166 334.485 -19.4439 324.484 -24.8533 312.096C-25.2658 311.15 -26.6453 311.968 -26.24 312.9Z" fill="url(#paint0_linear_0_797)"/>
<defs>
<linearGradient id="paint0_linear_0_797" x1="531.537" y1="47.355" x2="124.45" y2="47.355" gradientUnits="userSpaceOnUse">
<stop stop-color="#323259" stop-opacity="0.67"/>
<stop offset="1" stop-color="#323259"/>
</linearGradient>
</defs>
</svg>
